<?xml version="1.0" encoding="utf-8"?>
<!-- Svg Vector Icons : http://www.onlinewebfonts.com/icon -->
<!DOCTYPE svg PUBLIC "-//W3C//DTD SVG 1.1//EN" "http://www.w3.org/Graphics/SVG/1.1/DTD/svg11.dtd">
<svg version="1.1" xmlns="http://www.w3.org/2000/svg" xmlns:xlink="http://www.w3.org/1999/xlink" x="0px" y="0px" viewBox="0 0 1000 1000" enable-background="new 0 0 1000 1000" xml:space="preserve">
<metadata> Svg Vector Icons : http://www.onlinewebfonts.com/icon </metadata>
<g><g transform="translate(0.000000,512.000000) scale(0.100000,-0.100000)"><path d="M4530.1,5007.9C3375.4,4889,2341.7,4400,1530.4,3588.6C751.6,2809.9,287.5,1860.5,124.4,723.1c-32.6-226.3-32.6-982,0-1208.3c163-1137.4,629.1-2086.8,1405.9-2865.5c778.7-776.8,1728.1-1242.9,2865.5-1405.9c226.3-32.6,982-32.6,1208.3,0c581.2,82.5,1076,234,1561.3,475.6c533.2,264.7,914.9,540.9,1319.6,949.4C9259.9-2549,9714.4-1616.8,9875.5-485.2c32.6,226.3,32.6,982,0,1208.3c-161.1,1135.5-629.1,2086.8-1405.9,2865.5c-759.5,759.5-1687.8,1223.7-2779.2,1392.5C5448.8,5017.5,4775.6,5034.8,4530.1,5007.9z M5870.8,2508.8c126.6-57.5,234-166.9,297.3-299.2c40.3-86.3,49.9-132.3,49.9-258.9c-1.9-255.1,3.8-247.4-832.4-1087.5L4647.1,119l738.4-744.2c836.2-840.1,830.5-832.4,832.4-1087.5c0-126.6-9.6-172.6-49.9-258.9c-107.4-226.3-306.9-352.9-554.3-352.9c-274.3,0-243.6-24.9-1365.6,1097.1C3128-107.3,3168.3-159.1,3168.3,119S3128,345.3,4248.1,1465.4C5241.7,2457,5303,2510.7,5473.7,2554.8C5581.1,2581.7,5759.5,2560.6,5870.8,2508.8z"/></g></g>
</svg>